<svg xmlns="http://www.w3.org/2000/svg" viewBox="0 0 200 200">
  <!-- White outline around the whole logo (slightly larger) -->
  <polygon points="100,36 155,68 155,132 100,164 45,132 45,68" fill="none" stroke="white" stroke-width="4" />
  
  <!-- White background inside hexagon -->
  <polygon points="100,40 152,70 152,130 100,160 48,130 48,70" fill="white" />
  
  <!-- Outer node white outlines -->
  <circle cx="100" cy="40" r="14" fill="white" stroke="white" stroke-width="3" />
  <circle cx="152" cy="70" r="14" fill="white" stroke="white" stroke-width="3" />
  <circle cx="152" cy="130" r="14" fill="white" stroke="white" stroke-width="3" />
  <circle cx="100" cy="160" r="14" fill="white" stroke="white" stroke-width="3" />
  <circle cx="48" cy="130" r="14" fill="white" stroke="white" stroke-width="3" />
  <circle cx="48" cy="70" r="14" fill="white" stroke="white" stroke-width="3" />
  
  <!-- Lines connecting nodes to center -->
  <line x1="100" y1="100" x2="100" y2="40" stroke="black" stroke-width="5" />
  <line x1="100" y1="100" x2="100" y2="160" stroke="black" stroke-width="5" />
  <line x1="100" y1="100" x2="152" y2="70" stroke="black" stroke-width="5" />
  <line x1="100" y1="100" x2="152" y2="130" stroke="black" stroke-width="5" />
  <line x1="100" y1="100" x2="48" y2="70" stroke="black" stroke-width="5" />
  <line x1="100" y1="100" x2="48" y2="130" stroke="black" stroke-width="5" />
  
  <!-- Outer hexagon connections -->
  <line x1="100" y1="40" x2="152" y2="70" stroke="black" stroke-width="5" />
  <line x1="152" y1="70" x2="152" y2="130" stroke="black" stroke-width="5" />
  <line x1="152" y1="130" x2="100" y2="160" stroke="black" stroke-width="5" />
  <line x1="100" y1="160" x2="48" y2="130" stroke="black" stroke-width="5" />
  <line x1="48" y1="130" x2="48" y2="70" stroke="black" stroke-width="5" />
  <line x1="48" y1="70" x2="100" y2="40" stroke="black" stroke-width="5" />
  
  <!-- Outer nodes (black) with slight enlargement for better proportion -->
  <circle cx="100" cy="40" r="12.5" fill="black" />
  <circle cx="152" cy="70" r="12.5" fill="black" />
  <circle cx="152" cy="130" r="12.5" fill="black" />
  <circle cx="100" cy="160" r="12.5" fill="black" />
  <circle cx="48" cy="130" r="12.5" fill="black" />
  <circle cx="48" cy="70" r="12.5" fill="black" />
  
  <!-- Center node (red) using updated color -->
  <circle cx="100" cy="100" r="14.5" fill="#EF4444" stroke="black" stroke-width="5" />
</svg>
